<svg width="16" height="16" viewBox="0 0 16 16" fill="none" xmlns="http://www.w3.org/2000/svg">
<path fill-rule="evenodd" clip-rule="evenodd" d="M11.5356 3.05022C11.9261 2.65969 12.5592 2.65969 12.9498 3.05022C13.3403 3.44074 13.3403 4.07391 12.9498 4.46443L9.41424 7.99996L12.9498 11.5355C13.3403 11.926 13.3403 12.5592 12.9498 12.9497C12.5592 13.3402 11.9261 13.3402 11.5356 12.9497L8.00003 9.41418L4.46449 12.9497C4.07397 13.3402 3.4408 13.3402 3.05028 12.9497C2.65975 12.5592 2.65975 11.926 3.05028 11.5355L6.58581 7.99996L3.05028 4.46443C2.65975 4.07391 2.65975 3.44074 3.05028 3.05022C3.4408 2.65969 4.07397 2.65969 4.46449 3.05022L8.00003 6.58575L11.5356 3.05022Z" fill="#EB4B51"/>
</svg>
